<?xml version="1.0" encoding="UTF-8" standalone="no"?>
<svg
   xmlns:dc="http://purl.org/dc/elements/1.1/"
   xmlns:cc="http://creativecommons.org/ns#"
   xmlns:rdf="http://www.w3.org/1999/02/22-rdf-syntax-ns#"
   xmlns:svg="http://www.w3.org/2000/svg"
   xmlns="http://www.w3.org/2000/svg"
   xmlns:xlink="http://www.w3.org/1999/xlink"
   id="svg8"
   version="1.1"
   viewBox="0 0 125.98957 154.13447"
   height="154.13448mm"
   width="125.98957mm">
  <defs
     id="defs2">
    <marker
       style="overflow:visible;"
       id="Arrow2Lend"
       refX="0.0"
       refY="0.0"
       orient="auto">
      <path
         transform="scale(1.1) rotate(180) translate(1,0)"
         d="M 8.7185878,4.0337352 L -2.2072895,0.016013256 L 8.7185884,-4.0017078 C 6.9730900,-1.6296469 6.9831476,1.6157441 8.7185878,4.0337352 z "
         style="fill-rule:evenodd;stroke-width:0.625;stroke-linejoin:round;stroke:#000000;stroke-opacity:1;fill:#000000;fill-opacity:1"
         id="path3278" />
    </marker>
    <marker
       orient="auto"
       refY="0"
       refX="0"
       id="marker3789"
       style="overflow:visible">
      <path
         id="path3787"
         d="M 0,0 5,-5 -12.5,0 5,5 Z"
         style="fill:#000000;fill-opacity:1;fill-rule:evenodd;stroke:#000000;stroke-width:1.00000003pt;stroke-opacity:1"
         transform="matrix(-0.8,0,0,-0.8,-10,0)" />
    </marker>
    <marker
       orient="auto"
       refY="0"
       refX="0"
       id="marker3665"
       style="overflow:visible">
      <path
         id="path3663"
         d="M 0,0 5,-5 -12.5,0 5,5 Z"
         style="fill:#000000;fill-opacity:1;fill-rule:evenodd;stroke:#000000;stroke-width:1.00000003pt;stroke-opacity:1"
         transform="matrix(-0.8,0,0,-0.8,-10,0)" />
    </marker>
    <marker
       style="overflow:visible"
       id="Arrow2Lstart"
       refX="0.0"
       refY="0.0"
       orient="auto">
      <path
         transform="scale(1.1) translate(1,0)"
         d="M 8.7185878,4.0337352 L -2.2072895,0.016013256 L 8.7185884,-4.0017078 C 6.9730900,-1.6296469 6.9831476,1.6157441 8.7185878,4.0337352 z "
         style="fill-rule:evenodd;stroke-width:0.625;stroke-linejoin:round;stroke:#000000;stroke-opacity:1;fill:#000000;fill-opacity:1"
         id="path3275" />
    </marker>
    <linearGradient
       id="linearGradient3251">
      <stop
         id="stop3247"
         offset="0"
         style="stop-color:#000000;stop-opacity:0.98500001" />
      <stop
         id="stop3249"
         offset="1"
         style="stop-color:#000000;stop-opacity:1" />
    </linearGradient>
    <linearGradient
       id="linearGradient3245">
      <stop
         style="stop-color:#3a3a3a;stop-opacity:0.98431373"
         offset="0"
         id="stop3241" />
      <stop
         style="stop-color:#575757;stop-opacity:0.36500001"
         offset="1"
         id="stop3243" />
    </linearGradient>
    <linearGradient
       id="linearGradient3192">
      <stop
         style="stop-color:#000000;stop-opacity:1"
         offset="0"
         id="stop3188" />
      <stop
         style="stop-color:#000000;stop-opacity:1"
         offset="1"
         id="stop3190" />
    </linearGradient>
    <linearGradient
       id="linearGradient2999">
      <stop
         id="stop2995"
         offset="0"
         style="stop-color:#000000;stop-opacity:1;" />
      <stop
         id="stop2997"
         offset="1"
         style="stop-color:#000000;stop-opacity:0;" />
    </linearGradient>
    <linearGradient
       id="linearGradient2878">
      <stop
         id="stop2874"
         offset="0"
         style="stop-color:#393535;stop-opacity:1" />
      <stop
         id="stop2876"
         offset="1"
         style="stop-color:#b3b3b3;stop-opacity:0.557" />
    </linearGradient>
    <linearGradient
       id="linearGradient1048">
      <stop
         style="stop-color:#101010;stop-opacity:1"
         offset="0"
         id="stop1044" />
      <stop
         style="stop-color:#000000;stop-opacity:0;"
         offset="1"
         id="stop1046" />
    </linearGradient>
    <marker
       style="overflow:visible"
       id="Arrow2Sstart"
       refX="0"
       refY="0"
       orient="auto">
      <path
         transform="matrix(0.3,0,0,0.3,-0.69,0)"
         d="M 8.7185878,4.0337352 -2.2072895,0.01601326 8.7185884,-4.0017078 c -1.7454984,2.3720609 -1.7354408,5.6174519 -6e-7,8.035443 z"
         style="fill:#000000;fill-opacity:1;fill-rule:evenodd;stroke:#000000;stroke-width:0.625;stroke-linejoin:round;stroke-opacity:1"
         id="path872" />
    </marker>
    <marker
       style="overflow:visible"
       id="Arrow2Mstart"
       refX="0"
       refY="0"
       orient="auto">
      <path
         transform="scale(0.6)"
         d="M 8.7185878,4.0337352 -2.2072895,0.01601326 8.7185884,-4.0017078 c -1.7454984,2.3720609 -1.7354408,5.6174519 -6e-7,8.035443 z"
         style="fill:#000000;fill-opacity:1;fill-rule:evenodd;stroke:#000000;stroke-width:0.625;stroke-linejoin:round;stroke-opacity:1"
         id="path866" />
    </marker>
    <marker
       style="overflow:visible"
       id="Arrow1Lstart"
       refX="0"
       refY="0"
       orient="auto">
      <path
         transform="matrix(0.8,0,0,0.8,10,0)"
         style="fill:#000000;fill-opacity:1;fill-rule:evenodd;stroke:#000000;stroke-width:1.00000003pt;stroke-opacity:1"
         d="M 0,0 5,-5 -12.5,0 5,5 Z"
         id="path842" />
    </marker>
    <marker
       style="overflow:visible"
       id="Arrow1Lend"
       refX="0"
       refY="0"
       orient="auto">
      <path
         transform="matrix(-0.8,0,0,-0.8,-10,0)"
         style="fill:#000000;fill-opacity:1;fill-rule:evenodd;stroke:#000000;stroke-width:1.00000003pt;stroke-opacity:1"
         d="M 0,0 5,-5 -12.5,0 5,5 Z"
         id="path845" />
    </marker>
    <marker
       style="overflow:visible"
       id="Arrow2Sstart-2"
       refX="0"
       refY="0"
       orient="auto">
      <path
         transform="matrix(0.3,0,0,0.3,-0.69,0)"
         d="M 8.7185878,4.0337352 -2.2072895,0.01601326 8.7185884,-4.0017078 c -1.7454984,2.3720609 -1.7354408,5.6174519 -6e-7,8.035443 z"
         style="fill:#000000;fill-opacity:1;fill-rule:evenodd;stroke:#000000;stroke-width:0.625;stroke-linejoin:round;stroke-opacity:1"
         id="path872-7" />
    </marker>
    <marker
       style="overflow:visible"
       id="Arrow2Sstart-9"
       refX="0"
       refY="0"
       orient="auto">
      <path
         transform="matrix(0.3,0,0,0.3,-0.69,0)"
         d="M 8.7185878,4.0337352 -2.2072895,0.01601326 8.7185884,-4.0017078 c -1.7454984,2.3720609 -1.7354408,5.6174519 -6e-7,8.035443 z"
         style="fill:#000000;fill-opacity:1;fill-rule:evenodd;stroke:#000000;stroke-width:0.625;stroke-linejoin:round;stroke-opacity:1"
         id="path872-3" />
    </marker>
    <marker
       style="overflow:visible"
       id="Arrow2Sstart-0"
       refX="0"
       refY="0"
       orient="auto">
      <path
         transform="matrix(0.3,0,0,0.3,-0.69,0)"
         d="M 8.7185878,4.0337352 -2.2072895,0.01601326 8.7185884,-4.0017078 c -1.7454984,2.3720609 -1.7354408,5.6174519 -6e-7,8.035443 z"
         style="fill:#000000;fill-opacity:1;fill-rule:evenodd;stroke:#000000;stroke-width:0.625;stroke-linejoin:round;stroke-opacity:1"
         id="path872-6" />
    </marker>
    <marker
       style="overflow:visible"
       id="Arrow2Sstart-6"
       refX="0"
       refY="0"
       orient="auto">
      <path
         transform="matrix(0.3,0,0,0.3,-0.69,0)"
         d="M 8.7185878,4.0337352 -2.2072895,0.01601326 8.7185884,-4.0017078 c -1.7454984,2.3720609 -1.7354408,5.6174519 -6e-7,8.035443 z"
         style="fill:#000000;fill-opacity:1;fill-rule:evenodd;stroke:#000000;stroke-width:0.625;stroke-linejoin:round;stroke-opacity:1"
         id="path872-1" />
    </marker>
    <font
       vert-adv-y="90"
       vert-origin-y="90"
       vert-origin-x="45"
       horiz-origin-y="0"
       horiz-origin-x="0"
       id="font2785"
       horiz-adv-x="1024">
      <font-face
         font-family="SVGFont 1"
         id="font-face2787"
         units-per-em="1024" />
      <missing-glyph
         id="missing-glyph2789"
         d="M0,0h1000v1024h-1000z" />
    </font>
    <radialGradient
       gradientUnits="userSpaceOnUse"
       gradientTransform="matrix(0.15701813,0.15783581,-0.7053832,0.70172898,181.48822,23.698342)"
       r="58.147507"
       fy="134.03085"
       fx="103.13996"
       cy="134.03085"
       cx="103.13996"
       id="radialGradient1042"
       xlink:href="#linearGradient1048" />
    <linearGradient
       y2="191.60577"
       x2="404.07101"
       y1="393.0329"
       x1="216.89777"
       gradientUnits="userSpaceOnUse"
       id="linearGradient2882-4"
       xlink:href="#linearGradient2878"
       gradientTransform="matrix(0.26458333,0,0,0.26458333,2.6453283e-6,-5.4970071e-6)" />
    <radialGradient
       gradientUnits="userSpaceOnUse"
       gradientTransform="matrix(0.25151806,0.23371952,-0.8519721,0.9168527,122.09878,-0.7133989)"
       r="58.127397"
       fy="96.477562"
       fx="69.517662"
       cy="96.477562"
       cx="69.517662"
       id="radialGradient3001"
       xlink:href="#linearGradient2999" />
    <radialGradient
       gradientUnits="userSpaceOnUse"
       gradientTransform="matrix(0.05836596,-0.040965,0.22760597,0.32428761,90.787366,141.93531)"
       r="220.94179"
       fy="220.97006"
       fx="149.8262"
       cy="220.97006"
       cx="149.8262"
       id="radialGradient3186"
       xlink:href="#linearGradient3192" />
    <radialGradient
       r="220.94179"
       fy="345.13098"
       fx="233.49104"
       cy="345.13098"
       cx="233.49104"
       gradientTransform="matrix(0.46313407,-0.05040593,0.05630305,0.51731741,110.88326,199.06835)"
       gradientUnits="userSpaceOnUse"
       id="radialGradient3196"
       xlink:href="#linearGradient1048" />
    <radialGradient
       gradientUnits="userSpaceOnUse"
       gradientTransform="matrix(0.01544266,-0.01083866,0.06022076,0.0858011,61.052019,87.660811)"
       r="220.94179"
       fy="220.97008"
       fx="149.82629"
       cy="220.97008"
       cx="149.82628"
       id="radialGradient3186-9"
       xlink:href="#linearGradient3251" />
    <linearGradient
       gradientUnits="userSpaceOnUse"
       y2="89.747528"
       x2="139.53763"
       y1="169.01263"
       x1="74.951241"
       id="linearGradient3253"
       xlink:href="#linearGradient3245" />
    <marker
       style="overflow:visible"
       id="Arrow2Lstart-4"
       refX="0"
       refY="0"
       orient="auto">
      <path
         transform="matrix(1.1,0,0,1.1,1.1,0)"
         d="M 8.7185878,4.0337352 -2.2072895,0.01601326 8.7185884,-4.0017078 c -1.7454984,2.3720609 -1.7354408,5.6174519 -6e-7,8.035443 z"
         style="fill:#000000;fill-opacity:1;fill-rule:evenodd;stroke:#000000;stroke-width:0.625;stroke-linejoin:round;stroke-opacity:1"
         id="path3275-3" />
    </marker>
    <marker
       style="overflow:visible"
       id="Arrow2Lend-0"
       refX="0"
       refY="0"
       orient="auto">
      <path
         transform="matrix(-1.1,0,0,-1.1,-1.1,0)"
         d="M 8.7185878,4.0337352 -2.2072895,0.01601326 8.7185884,-4.0017078 c -1.7454984,2.3720609 -1.7354408,5.6174519 -6e-7,8.035443 z"
         style="fill:#000000;fill-opacity:1;fill-rule:evenodd;stroke:#000000;stroke-width:0.625;stroke-linejoin:round;stroke-opacity:1"
         id="path3278-3" />
    </marker>
  </defs>
  <metadata
     id="metadata5">
    <rdf:RDF>
      <cc:Work
         rdf:about="">
        <dc:format>image/svg+xml</dc:format>
        <dc:type
           rdf:resource="http://purl.org/dc/dcmitype/StillImage" />
        <dc:title></dc:title>
      </cc:Work>
    </rdf:RDF>
  </metadata>
  <g
     style="display:inline;opacity:1"
     transform="translate(-37.031199,-50.107104)"
     id="layer1">
    <text
       id="text2742"
       y="65.544586"
       x="85.359718"
       style="font-style:normal;font-weight:normal;font-size:10.58333302px;line-height:1.25;font-family:sans-serif;letter-spacing:0px;word-spacing:0px;fill:#000000;fill-opacity:1;stroke:none;stroke-width:0.26458332"
       xml:space="preserve"><tspan
         style="stroke-width:0.26458332"
         y="74.908356"
         x="85.359718"
         id="tspan2740" /></text>
    <text
       id="text2746"
       y="63.97768"
       x="69.509834"
       style="font-style:normal;font-weight:normal;font-size:10.58333302px;line-height:1.25;font-family:sans-serif;letter-spacing:0px;word-spacing:0px;fill:#000000;fill-opacity:1;stroke:none;stroke-width:0.26458332"
       xml:space="preserve"><tspan
         style="stroke-width:0.26458332"
         y="73.341446"
         x="69.509834"
         id="tspan2744" /></text>
    <path
       transform="matrix(0.26458333,0,0,0.26458333,37.031199,50.107104)"
       id="path1142"
       d="m 212.65151,567.85213 c -18.9374,-1.8775 -30.7797,-5.60698 -52.34045,-16.48355 C 83.637165,512.68955 41.537138,470.20932 31.733033,421.62937 c -1.947434,-9.64965 -2.091617,-30.56347 -0.278365,-40.37704 3.360627,-18.18818 8.77008,-33.76988 18.385826,-52.95959 10.765058,-21.48335 17.475966,-31.56497 28.099877,-42.2137 14.429157,-14.46287 30.939019,-23.4118 54.291019,-29.42768 16.11608,-4.15178 28.32993,-5.91797 60.7577,-8.7859 26.24997,-2.32155 35.29522,-3.43196 45.53748,-5.59023 16.82645,-3.54571 27.3434,-8.6457 35.36162,-17.14791 6.57721,-6.97423 12.28967,-19.27739 14.95962,-32.21916 1.95286,-9.46591 1.53189,-24.82697 -0.98432,-35.91682 -4.22881,-18.63789 -4.45902,-20.01175 -4.49184,-26.8067 -0.0469,-9.71291 2.35286,-16.4565 9.00571,-25.30676 9.58342,-12.748741 31.6218,-25.746394 55.11609,-32.505992 42.31228,-12.173764 92.61599,-4.457712 111.25489,17.065309 3.49198,4.032328 7.52403,12.160283 9.34816,18.844403 1.28687,4.71549 1.43136,6.8724 1.46727,21.90304 0.0409,17.14703 -0.22047,20.2219 -3.30763,38.90241 -8.89585,53.82916 -35.66111,140.93679 -63.48368,206.60779 -48.34966,114.12215 -106.47368,180.83528 -166.25644,190.82451 -6.41045,1.07113 -19.2634,1.78895 -23.86451,1.33278 z"
       style="display:inline;opacity:1;fill:url(#radialGradient3196);fill-opacity:1;fill-rule:nonzero;stroke:url(#radialGradient3186);stroke-width:0;stroke-linecap:round;stroke-linejoin:round;stroke-miterlimit:4;stroke-dasharray:none;stroke-opacity:1;paint-order:normal" />
    <path
       id="path1142-6"
       d="m 93.295244,200.35131 c -5.01052,-0.49676 -8.1438,-1.48352 -13.84841,-4.36127 -20.286637,-10.23383 -31.425603,-21.47339 -34.019605,-34.32684 -0.515259,-2.55313 -0.553407,-8.08658 -0.07365,-10.68309 0.889166,-4.81229 2.320417,-8.93495 4.864583,-14.01222 2.848255,-5.68414 4.623849,-8.35157 7.434759,-11.16904 3.817715,-3.82664 8.185949,-6.19438 14.364493,-7.78608 4.26405,-1.09849 7.49563,-1.5658 16.07548,-2.32461 6.9453,-0.61424 9.33853,-0.90804 12.048456,-1.47908 4.452,-0.93813 7.23461,-2.28751 9.35609,-4.53705 1.74022,-1.84526 3.25164,-5.10047 3.95807,-8.52465 0.51669,-2.504522 0.40531,-6.568802 -0.26044,-9.502993 -1.11887,-4.931275 -1.17978,-5.294776 -1.18847,-7.092606 -0.0124,-2.569874 0.62253,-4.354116 2.38277,-6.695747 2.53561,-3.373105 8.3666,-6.812067 14.58279,-8.600544 11.19513,-3.220975 24.50465,-1.179436 29.43619,4.515196 0.92392,1.066887 1.99074,3.217409 2.47337,4.985915 0.34049,1.24764 0.37872,1.818323 0.38822,5.79518 0.0108,4.536818 -0.0583,5.350377 -0.87515,10.29293 -2.35369,14.242299 -9.43533,37.289529 -16.79672,54.664979 -12.79252,30.19482 -28.17116,47.846 -43.988676,50.48899 -1.6961,0.2834 -5.09678,0.47332 -6.31415,0.35263 z"
       style="display:inline;opacity:1;fill:url(#linearGradient3253);fill-opacity:1;fill-rule:nonzero;stroke:url(#radialGradient3186-9);stroke-width:0;stroke-linecap:round;stroke-linejoin:round;stroke-miterlimit:4;stroke-dasharray:none;stroke-opacity:1;paint-order:normal" />
  </g>
  <g
     style="display:inline"
     id="layer2">
    <path
       id="path1138"
       d="m 46.26048,146.57433 c 12.475757,-0.006 24.951515,-0.0118 37.427272,-0.0177"
       style="display:inline;fill:none;stroke:#000000;stroke-width:1;stroke-linecap:round;stroke-linejoin:miter;stroke-miterlimit:4;stroke-dasharray:none;stroke-opacity:1"
       transform="translate(-37.0312,-50.107104)" />
    <path
       id="path1154"
       d="m 55.960067,181.00502 -6.247424,6.81537"
       style="display:inline;fill:none;stroke:#000000;stroke-width:1;stroke-linecap:butt;stroke-linejoin:miter;stroke-miterlimit:4;stroke-dasharray:none;stroke-opacity:1"
       transform="translate(-37.0312,-50.107104)" />
    <path
       id="path1154-6"
       d="m 59.425003,184.22419 -6.23072,6.76526"
       style="display:inline;fill:none;stroke:#000000;stroke-width:1;stroke-linecap:butt;stroke-linejoin:miter;stroke-miterlimit:4;stroke-dasharray:none;stroke-opacity:1"
       transform="translate(-37.0312,-50.107104)" />
    <path
       id="path1154-5"
       d="m 63.061823,187.31627 -6.330947,6.83208"
       style="display:inline;fill:none;stroke:#000000;stroke-width:1;stroke-linecap:butt;stroke-linejoin:miter;stroke-miterlimit:4;stroke-dasharray:none;stroke-opacity:1"
       transform="translate(-37.0312,-50.107104)" />
    <path
       id="path1154-6-3"
       d="m 66.685864,190.4091 -6.398592,6.95112"
       style="display:inline;fill:none;stroke:#000000;stroke-width:1;stroke-linecap:butt;stroke-linejoin:miter;stroke-miterlimit:4;stroke-dasharray:none;stroke-opacity:1"
       transform="translate(-37.0312,-50.107104)" />
    <path
       id="path1154-56"
       d="m 70.941137,193.03184 -7.100725,7.59006"
       style="display:inline;fill:none;stroke:#000000;stroke-width:1;stroke-linecap:butt;stroke-linejoin:miter;stroke-miterlimit:4;stroke-dasharray:none;stroke-opacity:1"
       transform="translate(-37.0312,-50.107104)" />
    <path
       id="path1154-6-2"
       d="m 75.228753,195.42443 -7.960981,8.47482"
       style="display:inline;fill:none;stroke:#000000;stroke-width:1;stroke-linecap:butt;stroke-linejoin:miter;stroke-miterlimit:4;stroke-dasharray:none;stroke-opacity:1"
       transform="translate(-37.0312,-50.107104)" />
    <path
       id="path1154-9"
       d="m 49.063755,173.66221 -6.93739,7.37508"
       style="display:inline;fill:none;stroke:#000000;stroke-width:1;stroke-linecap:butt;stroke-linejoin:miter;stroke-miterlimit:4;stroke-dasharray:none;stroke-opacity:1"
       transform="translate(-37.0312,-50.107104)" />
    <path
       id="path1154-6-1"
       d="m 52.016665,177.34498 -6.280833,6.88219"
       style="display:inline;fill:none;stroke:#000000;stroke-width:1;stroke-linecap:butt;stroke-linejoin:miter;stroke-miterlimit:4;stroke-dasharray:none;stroke-opacity:1"
       transform="translate(-37.0312,-50.107104)" />
    <path
       id="path1219"
       d="m 148.63784,52.368709 -2.48408,14.931988"
       style="display:inline;fill:none;stroke:#000000;stroke-width:1;stroke-linecap:butt;stroke-linejoin:miter;stroke-miterlimit:4;stroke-dasharray:none;stroke-opacity:1;marker-start:url(#Arrow2Sstart)"
       transform="translate(-37.0312,-50.107104)" />
    <path
       id="path1219-0"
       d="m 151.25316,52.7767 -2.48408,14.931988"
       style="display:inline;fill:none;stroke:#000000;stroke-width:1;stroke-linecap:butt;stroke-linejoin:miter;stroke-miterlimit:4;stroke-dasharray:none;stroke-opacity:1;marker-start:url(#Arrow2Sstart-2)"
       transform="translate(-37.0312,-50.107104)" />
    <path
       id="path1219-6"
       d="m 153.88496,53.23972 -2.48408,14.931987"
       style="display:inline;fill:none;stroke:#000000;stroke-width:1;stroke-linecap:butt;stroke-linejoin:miter;stroke-miterlimit:4;stroke-dasharray:none;stroke-opacity:1;marker-start:url(#Arrow2Sstart-9)"
       transform="translate(-37.0312,-50.107104)" />
    <path
       id="path1219-2"
       d="m 146.01562,51.943488 -2.48408,14.931987"
       style="display:inline;fill:none;stroke:#000000;stroke-width:1;stroke-linecap:butt;stroke-linejoin:miter;stroke-miterlimit:4;stroke-dasharray:none;stroke-opacity:1;marker-start:url(#Arrow2Sstart-0)"
       transform="translate(-37.0312,-50.107104)" />
    <path
       id="path1219-8"
       d="m 143.3627,51.53548 -2.48408,14.931988"
       style="display:inline;fill:none;stroke:#000000;stroke-width:1;stroke-linecap:butt;stroke-linejoin:miter;stroke-miterlimit:4;stroke-dasharray:none;stroke-opacity:1;marker-start:url(#Arrow2Sstart-6)"
       transform="translate(-37.0312,-50.107104)" />
    <text
       id="text2750"
       y="22.175068"
       x="49.531193"
       style="font-style:normal;font-weight:normal;font-size:3.52777767px;line-height:1.25;font-family:sans-serif;letter-spacing:0px;word-spacing:0px;display:inline;fill:#000000;fill-opacity:1;stroke:none;stroke-width:0.26458332"
       xml:space="preserve"><tspan
         style="font-size:7.76111126px;fill:#000000;fill-opacity:1;stroke-width:0.26458332"
         y="22.175068"
         x="49.531193"
         id="tspan2748">∂Ω</tspan></text>
    <path
       id="path2760"
       d="m 94.078282,73.049106 18.331918,6.04762"
       style="display:inline;fill:none;stroke:#000000;stroke-width:0.26458332px;stroke-linecap:butt;stroke-linejoin:miter;stroke-opacity:1"
       transform="translate(-37.0312,-50.107104)" />
    <text
       id="text2764"
       y="47.943119"
       x="58.121014"
       style="font-style:normal;font-weight:normal;font-size:3.52777767px;line-height:1.25;font-family:sans-serif;letter-spacing:0px;word-spacing:0px;display:inline;fill:#000000;fill-opacity:1;stroke:none;stroke-width:0.26458332"
       xml:space="preserve"><tspan
         style="font-size:7.76111126px;stroke-width:0.26458332"
         y="47.943119"
         x="58.121014"
         id="tspan2762">Ω</tspan></text>
    <path
       id="path2760-7"
       d="m 100.97635,98.940471 24.75753,17.386909"
       style="display:inline;fill:none;stroke:#000000;stroke-width:0.26458332px;stroke-linecap:butt;stroke-linejoin:miter;stroke-opacity:1"
       transform="translate(-37.0312,-50.107104)" />
    <path
       id="path6504"
       d="M 74.61251,146.94345 48.910128,118.21726"
       style="display:inline;fill:none;stroke:#000000;stroke-width:0.26458332px;stroke-linecap:butt;stroke-linejoin:miter;stroke-opacity:1"
       transform="translate(-37.0312,-50.107104)" />
    <text
       id="text6508"
       y="67.22728"
       x="2.1921356"
       style="font-style:normal;font-weight:normal;font-size:3.52777767px;line-height:1.25;font-family:sans-serif;letter-spacing:0px;word-spacing:0px;display:inline;fill:#000000;fill-opacity:1;stroke:none;stroke-width:0.26458332"
       xml:space="preserve"><tspan
         style="font-size:7.76111126px;stroke-width:0.26458332"
         y="67.22728"
         x="2.1921356"
         id="tspan6506">Crack</tspan></text>
    <path
       id="path3635"
       d="M 107.43105,146.3753 78.01868,98.085576"
       style="display:inline;opacity:1;fill:none;stroke:#000000;stroke-width:0.5;stroke-linecap:butt;stroke-linejoin:miter;stroke-miterlimit:4;stroke-dasharray:none;stroke-opacity:1;marker-end:url(#Arrow1Lend)" />
    <path
       id="path3655"
       d="m 143.60822,176.0887 0.85403,20.3937 h 16.08278 v 0"
       style="display:inline;opacity:1;fill:none;stroke:#000000;stroke-width:0.5;stroke-linecap:butt;stroke-linejoin:miter;stroke-miterlimit:4;stroke-dasharray:none;stroke-opacity:1;marker-start:url(#Arrow2Lstart-4);marker-end:url(#Arrow2Lend-0)"
       transform="translate(-37.0312,-50.107104)" />
    <text
       id="text7788"
       y="94.292442"
       x="70.673988"
       style="font-style:normal;font-weight:normal;font-size:3.52777767px;line-height:1.25;font-family:sans-serif;letter-spacing:0px;word-spacing:0px;fill:#000000;fill-opacity:1;stroke:none;stroke-width:0.26458332"
       xml:space="preserve"><tspan
         style="stroke-width:0.26458332;font-size:7.76111111px"
         y="94.292442"
         x="70.673988"
         id="tspan7786">X(<tspan
   id="tspan2169"
   style="font-weight:bold">x</tspan>)</tspan></text>
    <text
       id="text7794"
       y="9.2836027"
       x="118.90379"
       style="font-style:normal;font-weight:normal;font-size:3.52777767px;line-height:1.25;font-family:sans-serif;letter-spacing:0px;word-spacing:0px;fill:#000000;fill-opacity:1;stroke:none;stroke-width:0.26458332"
       xml:space="preserve"><tspan
         style="font-weight:bold;font-size:7.76111126px;stroke-width:0.26458332"
         y="9.2836027"
         x="118.90379"
         id="tspan7792">t</tspan></text>
    <text
       id="text7798"
       y="110.63412"
       x="77.256317"
       style="font-style:normal;font-weight:normal;font-size:3.52777767px;line-height:1.25;font-family:sans-serif;letter-spacing:0px;word-spacing:0px;fill:#000000;fill-opacity:1;stroke:none;stroke-width:0.26458332"
       xml:space="preserve"><tspan
         style="font-weight:bold;font-size:7.76111126px;stroke-width:0.26458332"
         y="110.63412"
         x="77.256317"
         id="tspan7796">x</tspan></text>
    <text
       id="text7880"
       y="61.411606"
       x="17.472034"
       style="font-style:normal;font-weight:normal;font-size:10.58333302px;line-height:1.25;font-family:sans-serif;letter-spacing:0px;word-spacing:0px;fill:#000000;fill-opacity:1;stroke:none;stroke-width:0.26458332"
       xml:space="preserve"><tspan
         style="stroke-width:0.26458332"
         y="70.775375"
         x="17.472034"
         id="tspan7878" /></text>
  </g>
  <g
     style="display:inline"
     id="layer4">
    <path
       id="path18"
       d="m 115.67456,75.511103 c 12.22429,-10.242027 27.88061,-8.257652 27.88061,-8.257652 0,0 10.84634,0.580883 15.53128,6.391749 2.94608,3.654105 5.19831,10.611537 -1.07112,34.86407 -8.6411,33.42708 -34.8115,109.82181 -77.120957,88.90337 -42.309361,-20.91843 -42.309361,-42.99902 -27.849199,-66.82279 14.460162,-23.82377 50.342796,-8.71603 57.840706,-23.82377 7.49789,-15.107781 -5.86038,-20.677287 4.78868,-31.254977 z"
       style="display:inline;fill:none;stroke:#000000;stroke-width:2;stroke-linecap:butt;stroke-linejoin:round;stroke-miterlimit:4;stroke-dasharray:none;stroke-opacity:1;paint-order:normal"
       transform="translate(-37.0312,-50.107104)" />
  </g>
</svg>
